<svg width="14" height="14" viewBox="0 0 14 14" fill="none" xmlns="http://www.w3.org/2000/svg">
<path d="M1 10V13H13V10" stroke="white" stroke-linecap="round"/>
<path d="M7.5 1C7.5 0.723858 7.27614 0.5 7 0.5C6.72386 0.5 6.5 0.723858 6.5 1H7.5ZM6.64645 10.8536C6.84171 11.0488 7.15829 11.0488 7.35355 10.8536L10.5355 7.67157C10.7308 7.47631 10.7308 7.15973 10.5355 6.96447C10.3403 6.7692 10.0237 6.7692 9.82843 6.96447L7 9.79289L4.17157 6.96447C3.97631 6.7692 3.65973 6.7692 3.46447 6.96447C3.2692 7.15973 3.2692 7.47631 3.46447 7.67157L6.64645 10.8536ZM6.5 1V10.5H7.5V1H6.5Z" fill="white"/>
</svg>
